<svg xmlns="http://www.w3.org/2000/svg" xmlns:svgjs="http://svgjs.com/svgjs" xmlns:xlink="http://www.w3.org/1999/xlink" width="288" height="288"><svg xmlns="http://www.w3.org/2000/svg" width="288" height="288" viewBox="0 0 32 32"><path fill="#c91b28" d="M22.94,16.31a1,1,0,0,0,0-.25V16a.85.85,0,0,0-.06-.31,0,0,0,0,0,0,0h0a.85.85,0,0,0-.19-.3l0,0-5-5a1,1,0,0,0-1.42,1.42L19.59,15H10a1,1,0,0,0,0,2h9.59l-3.3,3.29a1,1,0,0,0,0,1.42,1,1,0,0,0,1.42,0l5-5a1,1,0,0,0,.19-.3A.3.3,0,0,0,22.94,16.31Z" class="color000 svgShape" data-name="right arrow"/></svg></svg>